<?xml version="1.0" encoding="UTF-8" standalone="no"?>
<svg width="69px" height="201px" viewBox="0 0 69 201" version="1.1" xmlns="http://www.w3.org/2000/svg" xmlns:xlink="http://www.w3.org/1999/xlink" xmlns:sketch="http://www.bohemiancoding.com/sketch/ns">
    <!-- Generator: Sketch 3.4 (15588) - http://www.bohemiancoding.com/sketch -->
    <title>contact_pics</title>
    <desc>Created with Sketch.</desc>
    <defs></defs>
    <g id="Page-1" stroke="none" stroke-width="1" fill="none" fill-rule="evenodd" sketch:type="MSPage">
        <g id="contact_pics" sketch:type="MSLayerGroup" fill="#FFFFFF">
            <path d="M33.5608514,98.5939119 C38.004752,98.5939119 41.6083314,102.197499 41.6083314,106.641168 C41.6083314,111.085069 38.0047445,114.688648 33.5608514,114.688648 C29.1172043,114.688648 25.5135951,111.085061 25.5135951,106.641168 C25.5135951,102.197521 29.117182,98.5939119 33.5608514,98.5939119 L33.5608514,98.5939119 Z M33.5606008,101.526105 C36.3852772,101.526105 38.675895,103.816723 38.675895,106.641153 C38.675895,109.46583 36.3852772,111.756448 33.5606008,111.756448 C30.7361705,111.756448 28.4455526,109.46583 28.4455526,106.641153 C28.4455526,103.816723 30.7361705,101.526105 33.5606008,101.526105 L33.5606008,101.526105 Z M48.9119699,72.9349415 L35.052479,72.9349415 L33.5089408,72.9472216 C25.8920354,73.0076198 19.5755008,78.4895643 18.2091572,85.7117889 L32.0684245,85.7117889 L33.6122086,85.6995088 C41.2288905,85.63886 47.5453505,80.1571661 48.9119923,72.9349415 L48.9119699,72.9349415 Z M33.6758481,144.263909 L19.0118626,112.996712 L18.7499703,112.276947 C18.2214236,110.704843 17.9349723,109.021964 17.9349723,107.272919 C17.9354735,98.7996357 24.6687377,91.8433521 33.1377723,91.5804303 L33.5177044,91.5686513 L33.6114341,91.5691526 C42.2308268,91.6403271 49.1853959,98.6505235 49.1859177,107.271183 C49.1861684,109.038269 48.8934506,110.737935 48.3546316,112.32383 L48.3551328,112.32383 L33.6758655,144.263948 L33.6758481,144.263909 Z M33.6758481,151.341515 L51.0887717,113.440295 L51.1759854,113.145572 C51.7894901,111.298545 52.1220567,109.323701 52.1220567,107.271167 L52.1208036,107.271167 C52.1203024,97.0310813 43.8567691,88.7188904 33.6354691,88.6377104 L33.6354691,88.636708 L33.6354691,88.6342018 C43.8567691,88.5532529 52.1208036,80.2398618 52.1208036,70 L33.4853345,70 L33.4853345,70.0122801 C23.2642582,70.093229 15,78.4066201 15,88.6467056 L33.0467836,88.6467056 C23.02944,88.9577181 15.0005218,97.1788801 15,107.272111 L15,107.272863 C15,109.352465 15.340836,111.352616 15.9698811,113.22045 L15.9716354,113.224961 C16.0661173,113.505649 16.1671152,113.78333 16.2746284,114.057753 L33.6757738,151.341438 L33.6758481,151.341515 Z" id="envelope" sketch:type="MSShapeGroup"></path>
            <path d="M5.65129091,197.125112 L62.9818891,197.125112 L40.2323309,174.194632 L34.0692109,176.506801 L28.2664809,174.329962 L5.65125364,197.125142 L5.65129091,197.125112 Z M65.2036418,162.102465 L65.2036418,153.934966 L2.93492909,153.934966 L2.93492909,157.362872 L2.93492909,162.102494 C14.8804655,166.503039 28.7194564,171.601076 34.0692855,173.571909 C40.4008185,171.239687 50.9263982,167.36193 65.2036418,162.102494 L65.2036418,162.102465 Z M65.2036418,164.826393 L43.2453091,173.064336 L53.7435455,183.645765 L65.2036418,195.197105 L65.2036418,164.826393 L65.2036418,164.826393 Z M25.2536891,173.199711 L2.93492909,164.826393 L2.93492909,195.695889 L14.8897836,183.64584 L25.2536891,173.199711 L25.2536891,173.199711 Z M-2.84217094e-14,200.060078 L-2.84217094e-14,163.725431 L-2.84217094e-14,151 L68.1386455,151 L68.1386455,163.725431 L68.1386455,200.060078 L65.893888,200.060078 L2.73950073,200.060078 L2.98181818e-05,200.060078 L-2.84217094e-14,200.060078 Z" id="marker" sketch:type="MSShapeGroup"></path>
            <path d="M20.9666405,2.93220073 C19.3033078,2.93220073 17.9322007,4.30506709 17.9322007,5.96664055 L17.9322007,12.6522869 L36.5132516,12.6522869 L49.2670098,12.6522869 L49.2670098,5.96664055 C49.2670098,4.30356127 47.8928911,2.93220073 46.23257,2.93220073 L20.9665809,2.93220073 L20.9666405,2.93220073 Z M33.5996351,58.2714662 C35.4020547,58.2714662 36.8636376,59.7330491 36.8636376,61.5354687 C36.8636376,63.3378884 35.4020547,64.7994713 33.5996351,64.7994713 C31.7972155,64.7994713 30.3356325,63.3378884 30.3356325,61.5354687 C30.3356325,59.7330491 31.7972155,58.2714662 33.5996351,58.2714662 L33.5996351,58.2714662 Z M49.2670769,56.0630496 L17.9321933,56.0630496 L17.9321933,63.880706 C17.9321933,65.5415265 19.3035538,66.9151458 20.9666331,66.9151458 L46.2326222,66.9151458 C47.8957015,66.9151458 49.267062,65.5437853 49.267062,63.880706 L49.267062,56.0630496 L49.2670769,56.0630496 Z M17.9321933,53.1280982 L36.5132442,53.1280982 L49.2670024,53.1280982 L49.2670024,15.5872309 L17.9321187,15.5872309 L17.9321187,53.1280982 L17.9321933,53.1280982 Z M20.9666331,0 L46.2326222,0 C49.5144187,0 52.1992553,2.68859364 52.1992553,5.96663309 L52.1992553,63.8806985 C52.1992553,67.158738 49.5106616,69.8473316 46.2326222,69.8473316 L20.9666331,69.8473316 C17.6885936,69.8473316 15,67.1624951 15,63.8806985 L15,5.96663309 C15,2.68483655 17.6848365,7.4485872e-15 20.9666331,7.4485872e-15 L20.9666331,0 Z" id="phone" sketch:type="MSShapeGroup"></path>
        </g>
    </g>
</svg>
