<?xml version="1.0" encoding="UTF-8" standalone="no"?>
<svg width="186px" height="62px" viewBox="0 0 186 62" version="1.1" xmlns="http://www.w3.org/2000/svg" xmlns:xlink="http://www.w3.org/1999/xlink">
    <!-- Generator: Sketch 3.8.3 (29802) - http://www.bohemiancoding.com/sketch -->
    <title>Slice 1</title>
    <desc>Created with Sketch.</desc>
    <defs></defs>
    <g id="Page-1" stroke="none" stroke-width="1" fill="none" fill-rule="evenodd">
        <g id="Слой_x0020_1" fill="#FFFFFF">
            <path d="M105.399951,13.4436504 C102.568658,13.4436504 100.274557,15.7687925 100.274557,18.6413828 C100.274557,21.503726 102.568649,23.8391151 105.399951,23.8391151 C108.231244,23.8391151 110.525344,21.503723 110.525344,18.6413828 C110.525344,15.7687896 108.231253,13.4436504 105.399951,13.4436504 L105.399951,13.4436504 Z M105.399951,10.4574063 L105.399951,10.4574063 C109.853677,10.4574063 113.460015,14.125538 113.460015,18.6413828 C113.460015,23.156933 109.853677,26.8148147 105.399951,26.8148147 C100.946224,26.8148147 97.3398871,23.156933 97.3398871,18.6413828 C97.3398871,14.125538 100.946224,10.4574063 105.399951,10.4574063 L105.399951,10.4574063 Z M90.2909173,23.5450472 L90.291796,23.5450472 C89.7897422,21.9987609 89.5173348,20.3493564 89.5173348,18.6361105 C89.5173348,9.86570662 96.6295421,2.75349924 105.399946,2.75349924 C114.17035,2.75349924 121.282557,9.86570662 121.282557,18.6361105 C121.282557,20.3347119 121.014835,21.9706177 120.520985,23.5051961 L120.522157,23.5051961 L120.517177,23.5163268 C116.88389,34.7788264 110.571032,46.2120704 105.797436,57.1046877 C100.809121,46.308797 93.9511598,34.7920512 90.2944562,23.5525551 L90.2909413,23.5452323 L90.2909173,23.5450472 Z M93.0311151,22.495834 L93.0797385,22.6460981 C95.0484058,28.6967864 97.85304,34.5629459 100.695166,40.2466384 C102.357445,43.570012 104.068935,46.8735042 105.724481,50.2027391 C109.987523,41.1256611 114.670312,32.0995678 117.729514,22.6171155 L117.735372,22.5989549 C118.146914,21.3174622 118.353418,19.9820718 118.353418,18.6361368 C118.353418,11.4826351 112.553442,5.6826585 105.39994,5.6826585 C98.2464381,5.6826585 92.4464616,11.4826351 92.4464616,18.6361368 C92.4464616,19.9460437 92.6421272,21.2456948 93.0311159,22.4958367 L93.0311151,22.495834 Z" id="Shape"></path>
            <path d="M0.000371119328,53.732777 L0.000371119328,23.1257413 L0.000371119328,12.3998625 L57.8670051,12.3998625 L57.8670051,23.1257413 L57.8670051,53.732777 L55.9657077,53.732777 L2.32541604,53.732777 L0.000273921409,53.732777 L0.000371119328,53.732777 Z M21.4421732,31.1029218 L21.4421732,31.1029218 L12.6483534,39.9069915 L2.49072908,50.0540714 L2.49072908,24.0454692 L21.4421732,31.1029218 L21.4421732,31.1029218 Z M55.3766176,24.0454692 L55.3766176,24.0454692 L55.3766176,49.6305241 L45.6425406,39.9069915 L36.7251027,30.9892591 L55.3766176,24.0454692 L55.3766176,24.0454692 Z M55.3766176,21.7513774 L55.3766176,21.7513774 L55.3766176,14.8693819 L2.49064072,14.8693819 L2.49064072,17.7627725 L2.49064072,21.7513627 L28.9336292,31.4128064 L55.3766176,21.7513627 L55.3766176,21.7513774 Z M4.79511502,51.2633166 L4.79511502,51.2633166 L53.4856763,51.2633166 L34.1727738,31.9398695 L28.933747,33.8930116 L24.0048994,32.0535204 L4.79511502,51.2633048 L4.79511502,51.2633166 Z" id="Shape"></path>
            <path d="M158.234089,8.83617447e-05 L180.698737,8.83617447e-05 C183.612634,8.83617447e-05 185.999882,2.38703363 185.999882,5.30093888 L185.999882,56.6986095 C185.999882,59.6125059 183.612645,61.99946 180.698737,61.99946 L158.234089,61.99946 C155.320193,61.99946 152.933238,59.6125147 152.933238,56.6986095 L152.933238,5.30093888 C152.933238,2.38704246 155.320184,8.83617447e-05 158.234089,8.83617447e-05 L158.234089,8.83617447e-05 Z M155.537241,47.1611078 L155.537241,47.1611078 L172.060151,47.1611078 L183.395873,47.1611078 L183.395873,13.8363594 L155.537241,13.8363594 L155.537241,47.1611078 L155.537241,47.1611078 Z M183.395873,49.765102 L183.395873,49.765102 L155.537241,49.765102 L155.537241,56.6986419 C155.537241,58.176386 156.756345,59.3954895 158.234089,59.3954895 L180.698737,59.3954895 C182.176481,59.3954895 183.395876,58.176386 183.395876,56.6986419 L183.395876,49.765102 L183.395873,49.765102 Z M169.46641,51.7282024 L169.46641,51.7282024 C171.068058,51.7282024 172.370054,53.0199481 172.370054,54.621593 C172.370054,56.223241 171.068058,57.5149836 169.46641,57.5149836 C167.864762,57.5149836 166.562767,56.223238 166.562767,54.621593 C166.562767,53.0199451 167.864762,51.7282024 169.46641,51.7282024 L169.46641,51.7282024 Z M158.234101,2.60407953 L158.234101,2.60407953 C156.756357,2.60407953 155.537253,3.82318295 155.537253,5.3009271 L155.537253,11.2324154 L172.060163,11.2324154 L183.395885,11.2324154 L183.395885,5.3009271 C183.395885,3.82318295 182.17649,2.60407953 180.698746,2.60407953 L158.234098,2.60407953 L158.234101,2.60407953 Z" id="Shape"></path>
        </g>
    </g>
</svg>