<?xml version="1.0" encoding="UTF-8" standalone="no"?>
<svg width="151px" height="48px" viewBox="0 0 151 48" version="1.1" xmlns="http://www.w3.org/2000/svg" xmlns:xlink="http://www.w3.org/1999/xlink">
    <!-- Generator: Sketch 3.8.3 (29802) - http://www.bohemiancoding.com/sketch -->
    <title>logo@pages</title>
    <desc>Created with Sketch.</desc>
    <defs></defs>
    <g id="Page-1" stroke="none" stroke-width="1" fill="none" fill-rule="evenodd">
        <g id="Слой_x0020_1" fill="#FFFFFF">
            <g id="_107171632">
                <path d="M0.553505535,27.6249412 C0.542522601,29.6265053 0.791521771,31.3351212 1.27869188,32.7174022 C1.76021568,34.110814 2.53514391,35.1614409 3.59232841,35.8858879 C4.65500923,36.61018 6.0443524,36.9640955 7.75471218,36.9750714 C8.60698893,36.9640997 9.40968819,36.875542 10.1402103,36.6930974 C10.8818745,36.4995243 11.5461863,36.2673935 12.1328303,35.9633201 C12.7196347,35.6702176 13.2232804,35.3438878 13.6329465,34.990127 L12.3542159,31.749853 C12.0830939,31.9655266 11.767572,32.1700712 11.4023081,32.3691306 C11.0425378,32.5736757 10.6328745,32.7230478 10.1901033,32.8556497 C9.74168524,32.9884081 9.2546679,33.0547085 8.72874354,33.0547085 C7.27868081,33.0492226 6.23796863,32.534961 5.59044465,31.5230504 C4.94841144,30.5167859 4.63288561,29.0680413 4.63838192,27.2102088 L4.63838192,16.9697935 L13.0682712,16.9697935 L13.0682712,13.0550695 L4.63838192,13.0550695 L4.63838192,6.53030828 L0.553505535,6.53030828 L0.553505535,27.6249036 L0.553505535,27.6249412 Z" id="_107171752"></path>
                <path d="M77.6845018,36.5549412 L81.774869,36.5549412 L81.774869,0.000165882353 L77.6845018,0.000165882353 L77.6845018,36.5549412 L77.6845018,36.5549412 Z M97.3505535,13.0551624 L97.3505535,13.0551624 L92.1421218,13.0551624 L82.6439114,24.2852318 L93.0110148,36.5549412 L98.5793911,36.5549412 L87.5976753,23.97 L97.3505535,13.0551624 L97.3505535,13.0551624 Z" id="_107171776"></path>
                <path d="M104.944649,24.8048859 C104.955789,23.5606908 105.149403,22.4329507 105.553577,21.4044248 C105.952102,20.3815445 106.505485,19.5023901 107.219535,18.7669728 C107.933585,18.02591 108.769389,17.4619598 109.732434,17.0583569 C110.695638,16.6602387 111.730705,16.4500498 112.865397,16.4500498 C114.4096,16.4611783 115.776819,16.8150954 116.955764,17.5227722 C118.140199,18.2249633 119.075629,19.2092871 119.750928,20.4533273 C120.420731,21.7084982 120.774852,23.1627225 120.780504,24.8048804 C120.774855,26.4857552 120.420733,27.9456249 119.750928,29.2007904 C119.075635,30.4448306 118.140199,31.4180236 116.955764,32.1092444 C115.776825,32.8059502 114.4096,33.1542258 112.865397,33.1598658 C111.321039,33.1542232 109.953814,32.7893338 108.769384,32.0814978 C107.584948,31.3849467 106.649518,30.4061081 105.97422,29.1565827 C105.304417,27.9069025 104.955786,26.4526727 104.944644,24.8048693 L104.944649,24.8048859 Z M100.605127,24.8048859 L100.605127,24.8048859 C100.610776,26.5688291 100.90402,28.2109869 101.490825,29.6984429 C102.066487,31.1858989 102.89664,32.4796265 103.975954,33.5855807 C105.055423,34.6858894 106.339483,35.5485827 107.850581,36.1512499 C109.345046,36.7595571 111.016655,37.0691156 112.865397,37.0802464 C114.713983,37.0691179 116.380096,36.7595576 117.885703,36.1512499 C119.385659,35.5485882 120.669725,34.6858949 121.749033,33.5855807 C122.833993,32.4796265 123.658655,31.1858989 124.245459,29.6984429 C124.826613,28.2109869 125.114369,26.5688291 125.120015,24.8048859 C125.114366,23.0301272 124.826613,21.4044248 124.245459,19.9114836 C123.658655,18.4240276 122.833993,17.1301453 121.749033,16.0243459 C120.669725,14.9295224 119.385659,14.0668291 117.885703,13.4586767 C116.380096,12.8448844 114.713983,12.5408109 112.865397,12.5353258 C111.016649,12.5408116 109.345046,12.844886 107.850581,13.4586767 C106.339483,14.0668235 105.055417,14.9295168 103.975954,16.0243459 C102.896646,17.1301398 102.066487,18.4240276 101.490825,19.9114836 C100.90402,21.4044248 100.610779,23.0301272 100.605127,24.8048859 L100.605127,24.8048859 Z" id="_107171848"></path>
                <path d="M41.5184502,13.0551071 L36.8745443,13.0551071 L31.5608358,27.9400071 C31.1513286,29.1953328 30.7915572,30.3951709 30.4870185,31.5453273 L29.8173708,29.7647682 C29.5959858,29.1842076 29.3634609,28.5925164 29.1088118,27.9898492 L22.3671697,13.0550739 L17.4631218,13.0550739 L28.4943764,36.5548527 L27.9852382,37.8100236 C27.2324375,39.6789814 26.4686496,41.0393273 25.6825832,41.8852444 C24.9076589,42.7368069 24.04424,43.1515405 23.0811902,43.1349246 C22.6217889,43.1294387 22.17886,43.0408809 21.7415851,42.8860225 C21.3154467,42.7201922 20.9114319,42.5432338 20.5238895,42.355303 L19.1955814,45.5402441 C19.8100002,45.9604623 20.4686607,46.3087384 21.1825555,46.5852256 C21.8856238,46.8505853 22.6826718,46.9888295 23.5405943,46.999958 C24.3486238,47.0054439 25.1069208,46.8617138 25.8209707,46.5465108 C26.5295297,46.2424363 27.2158046,45.7060734 27.8965943,44.9319392 C28.5718876,44.1632901 29.2693046,43.1016928 29.9944965,41.7360221 C30.7083858,40.3756818 31.4889614,38.6449648 32.3247659,36.5548472 L41.5184375,13.0550684 L41.5184502,13.0551071 Z" id="_107171920"></path>
                <polygon id="_107171992" points="45.7084871 36.5549412 49.7933579 36.5549412 49.7933579 19.4249894 58.0682657 30.3398824 58.2232472 30.3398824 66.1937269 19.4249894 66.1937269 36.5549412 70.2785978 36.5549412 70.2785978 13.0551071 66.6531365 13.0551071 58.2730627 24.6998824 49.4391144 13.0551071 45.7084871 13.0551071"></polygon>
                <path d="M139.632841,16.2400482 C140.623661,16.2344056 141.520339,16.3450634 142.311742,16.5828369 C143.103299,16.809482 143.723208,17.1800134 144.182607,17.6942763 C144.642008,18.2085382 144.880024,18.8886293 144.891166,19.740037 C144.880026,20.5032009 144.686256,21.1666806 144.287889,21.7085242 C143.894857,22.2560151 143.352454,22.6707469 142.655037,22.9582045 C141.951969,23.2456642 141.154921,23.3948804 140.241609,23.3948804 L135.08307,23.3948804 L135.08307,16.4003956 C135.603348,16.361681 136.256363,16.3339382 137.053411,16.3008662 C137.844969,16.256509 138.702897,16.2400516 139.632836,16.2400516 L139.632841,16.2400482 Z M139.98712,26.0047682 L139.98712,26.0047682 C141.835706,26.0047682 143.241682,26.292385 144.199242,26.8839171 C145.162291,27.4810935 145.649465,28.3825038 145.660446,29.6099281 C145.649463,30.8375128 145.145816,31.7774741 144.143858,32.4133675 C143.136566,33.0492609 141.680852,33.3699502 139.782212,33.3699502 C138.863409,33.3699502 138.005481,33.3423641 137.202943,33.3091356 L135.083077,33.2150919 L135.083077,26.0047942 L139.987125,26.0047942 L139.98712,26.0047682 Z M130.99819,36.5548859 L130.99819,36.5548859 C131.712079,36.5548859 132.536902,36.5769861 133.472337,36.6102148 L136.439149,36.7097442 C137.457583,36.7484589 138.464874,36.7650732 139.428079,36.7650732 C142.992516,36.7595873 145.649426,36.1733819 147.392913,35.0066152 C149.142029,33.8509737 150.005443,32.1480033 149.999952,29.9251245 C150.005443,28.4542844 149.573813,27.2489556 148.699258,26.3089887 C147.819212,25.3745071 146.46862,24.7329737 144.636505,24.3901833 L144.636505,24.2851682 C145.56645,24.1357955 146.363498,23.8096211 147.055264,23.3174603 C147.74719,22.8199697 148.273114,22.1952054 148.655011,21.437687 C149.036904,20.6801631 149.225027,19.8340857 149.230673,18.9052496 C149.225025,16.7985161 148.372745,15.2668579 146.695496,14.2936649 C145.012906,13.3149866 142.549745,12.8394351 139.322802,12.8449203 C138.210229,12.8449203 137.153044,12.8615347 136.129114,12.9002492 C135.116171,12.933478 134.169754,12.9665502 133.306181,13.0052644 C132.437271,13.0384931 131.667837,13.0551075 130.99819,13.0551075 L130.99819,36.5548863 L130.99819,36.5548859 Z" id="_107172064"></path>
            </g>
        </g>
    </g>
</svg>