<?xml version="1.0" encoding="UTF-8"?>
<!DOCTYPE svg PUBLIC "-//W3C//DTD SVG 1.1//EN" "http://www.w3.org/Graphics/SVG/1.1/DTD/svg11.dtd">
<!-- Creator: CorelDRAW -->
<svg xmlns="http://www.w3.org/2000/svg" xml:space="preserve" width="150px" height="150px" style="shape-rendering:geometricPrecision; text-rendering:geometricPrecision; image-rendering:optimizeQuality; fill-rule:evenodd; clip-rule:evenodd"
viewBox="0 0 150 150"
 xmlns:xlink="http://www.w3.org/1999/xlink">
 <defs>
  <style type="text/css">
   <![CDATA[
    .fil1 {fill:white}
   ]]>
  </style>
 </defs>
 <g id="Слой_x0020_1">
  <metadata id="CorelCorpID_0Corel-Layer"/>
  <g id="_109790600">
   <path id="_109790576" class="fil1" d="M80.98 48.5l-9.95982 0c-6.62996,0 -12.02,5.56016 -12.02,12.4101l0 25.0498c0,9.65992 7.58014,17.54 16.9997,17.54 9.42011,0 17.0002,-7.88004 17.0002,-17.54l0 -25.0498c0,-6.84993 -5.39009,-12.4101 -12.02,-12.4101zm0 3.4801l0 0c4.7299,0 8.64001,3.98013 8.64001,8.93l0 25.0498c0,7.76014 -6.10017,14.0601 -13.6202,14.0601 -7.51976,0 -13.6196,-6.30001 -13.6196,-14.0601l0 -25.0498c0,-4.89005 3.85002,-8.93 8.64001,-8.93l9.95982 0z"/>
   <path id="_109790504" class="fil1" d="M75.9998 77.5299c-0.18,0 -0.40989,-0.0600946 -0.589891,-0.189921l-5.2098 -3.78c-0.479906,-0.309827 -0.600095,-0.979938 -0.240095,-1.46977 0.290268,-0.490111 0.950174,-0.610017 1.42016,-0.250016l4.61963 3.36955 4.62019 -3.36955c0.469985,-0.300189 1.0698,-0.240095 1.41988,0.250016 0.299906,0.489827 0.240095,1.09984 -0.240095,1.46977l-5.2098 3.78c-0.18,0.129827 -0.410174,0.189921 -0.590174,0.189921z"/>
   <path id="_109790432" class="fil1" d="M76.0599 85.66c-0.18,0 -0.420095,-0.0700158 -0.589891,-0.190205l-5.21972 -3.78993c-0.470268,-0.299906 -0.590174,-0.970017 -0.230174,-1.45984 0.289985,-0.490111 0.950174,-0.610017 1.42016,-0.250016l4.61963 3.35991 4.61991 -3.35991c0.469985,-0.300189 1.07008,-0.240095 1.42016,0.250016 0.299906,0.489827 0.239811,1.09984 -0.240095,1.45984l-5.21009 3.78993c-0.18,0.120189 -0.349796,0.190205 -0.589891,0.190205z"/>
   <path id="_109790768" class="fil1" d="M75.9998 93.5998c-0.18,0 -0.40989,-0.0598111 -0.589891,-0.18l-5.2098 -3.78993c-0.479906,-0.310111 -0.600095,-0.979938 -0.240095,-1.47005 0.350079,-0.490111 0.950174,-0.610017 1.42016,-0.240095l4.61963 3.36019 4.62019 -3.36019c0.469985,-0.309827 1.0698,-0.250016 1.41988,0.240095 0.299906,0.490111 0.240095,1.10013 -0.240095,1.47005l-5.2098 3.78993c-0.18,0.120189 -0.410174,0.18 -0.590174,0.18z"/>
   <path id="_109790696" class="fil1" d="M75.9998 67.6302c-1.12961,0 -2.00977,-0.920127 -2.00977,-2.08007l0 -4.57994c0,-1.15994 0.880159,-2.08007 2.00977,-2.08007 1.13017,0 2.01005,0.920127 2.01005,2.08007l0 4.57994c0,1.15994 -0.879875,2.08007 -2.01005,2.08007z"/>
  </g>
 </g>
</svg>
