<?xml version="1.0" encoding="UTF-8" standalone="no"?>
<svg width="216px" height="44px" viewBox="0 0 216 44" version="1.1" xmlns="http://www.w3.org/2000/svg" xmlns:xlink="http://www.w3.org/1999/xlink">
    <!-- Generator: Sketch 3.8.3 (29802) - http://www.bohemiancoding.com/sketch -->
    <title>Slice 1</title>
    <desc>Created with Sketch.</desc>
    <defs></defs>
    <g id="Page-1" stroke="none" stroke-width="1" fill="none" fill-rule="evenodd">
        <g id="Слой_x0020_1">
            <path d="M97.6151,20.37255 C97.6151,31.0827 88.88385,39.7749 78.09615,39.7749 C67.3079,39.7749 58.57665,31.0827 58.57665,20.37255 C58.57665,9.6624 67.3079,0.9702 78.09615,0.9702 C88.88385,0.9702 97.6151,9.6624 97.6151,20.37255" id="Shape" stroke="#FFFFFF" stroke-width="0.3528"></path>
            <g id="_107171512" transform="translate(60.500000, 5.500000)" fill="#FFFFFF">
                <path d="M29.1214,5.38505 C28.1512,5.9477 27.0842,6.3745 25.9391,6.5879 C25.0272,5.6177 23.72755,5.016 22.2915,5.016 C19.51675,5.016 17.2854,7.24735 17.2854,10.00285 C17.2854,10.3906 17.32445,10.75965 17.402,11.12815 C13.25005,10.91475 9.5634,8.9353 7.0994,5.9279 C6.6528,6.66545 6.42015,7.51905 6.42015,8.43095 C6.42015,10.15795 7.293,11.67155 8.63225,12.56365 C7.81715,12.5444 7.0411,12.31175 6.36185,11.94325 L6.36185,12.0208 C6.36185,14.4265 8.08885,16.42465 10.3785,16.88995 C9.97095,17.00655 9.52435,17.06485 9.05905,17.06485 C8.7483,17.06485 8.4381,17.0258 8.12735,16.96805 C8.7681,18.94695 10.61115,20.38245 12.80345,20.44075 C11.09625,21.7602 8.9232,22.55605 6.57525,22.55605 C6.1875,22.55605 5.77995,22.53625 5.39165,22.49775 C7.60375,23.89475 10.24265,24.7291 13.07515,24.7291 C22.27225,24.7291 27.31685,17.1424 27.31685,10.5655 L27.2976,9.9253 C28.2678,9.2268 29.1214,8.3534 29.80065,7.3447 C28.908,7.75225 27.9378,8.00415 26.92855,8.14 C27.95705,7.51905 28.7529,6.54885 29.1214,5.38505 L29.1214,5.38505 Z" id="_107170720"></path>
            </g>
            <path d="M40.0279,20.37255 C40.0279,31.0827 31.2774,39.7749 20.48915,39.7749 C9.7207,39.7749 0.9702,31.0827 0.9702,20.37255 C0.9702,9.6624 9.7207,0.9702 20.48915,0.9702 C31.2774,0.9702 40.0279,9.6624 40.0279,20.37255" id="Shape" stroke="#FFFFFF" stroke-width="0.3528"></path>
            <g id="_107171968" transform="translate(11.000000, 5.500000)" fill="#FFFFFF">
                <path d="M6.22985,26.99895 L11.31295,26.99895 L11.31295,14.87255 L14.7279,14.87255 L15.1745,10.604 L11.31295,10.604 L11.31295,8.0817 C11.31295,7.1313 11.9339,6.9179 12.3805,6.9179 L15.0964,6.9179 L15.0964,2.7654 L11.352,2.74615 C7.18025,2.74615 6.22985,5.85035 6.22985,7.8298 L6.22985,10.604 L3.8236,10.604 L3.8236,14.87255 L6.22985,14.87255 L6.22985,26.99895 L6.22985,26.99895 Z" id="_107172016"></path>
            </g>
            <g id="Group" transform="translate(115.500000, 0.000000)">
                <path d="M40.69175,20.37255 C40.69175,31.0827 31.94125,39.7749 21.1728,39.7749 C10.38455,39.7749 1.63405,31.0827 1.63405,20.37255 C1.63405,9.6624 10.38455,0.9702 21.1728,0.9702 C31.94125,0.9702 40.69175,9.6624 40.69175,20.37255" id="Shape" stroke="#FFFFFF" stroke-width="0.3528"></path>
                <g id="_107171032" transform="translate(5.500000, 5.500000)" fill="#FFFFFF">
                    <path d="M25.4903,22.3036 C25.4903,23.6038 24.44255,24.63175 23.16215,24.63175 L8.1829,24.63175 C6.88325,24.63175 5.8355,23.6038 5.8355,22.3036 L5.8355,12.3893 L9.4831,12.3893 C9.17235,13.1461 8.998,13.9997 8.998,14.87255 C8.998,18.52015 11.98615,21.5083 15.6728,21.5083 C19.33965,21.5083 22.34705,18.52015 22.34705,14.87255 C22.34705,13.9997 22.1727,13.1461 21.8427,12.3893 L25.4903,12.3893 L25.4903,22.3036 L25.4903,22.3036 Z M12.1803,12.3893 L12.1803,12.3893 C12.9756,11.3025 14.23675,10.604 15.6728,10.604 C17.1083,10.604 18.36945,11.3025 19.1455,12.3893 C19.64985,13.0878 19.9606,13.9414 19.9606,14.87255 C19.9606,17.21995 18.03945,19.1411 15.6728,19.1411 C13.3056,19.1411 11.3652,17.21995 11.3652,14.87255 C11.3652,13.9414 11.6754,13.0878 12.1803,12.3893 L12.1803,12.3893 Z M24.50085,5.54015 L24.50085,5.54015 L25.04425,5.54015 L25.04425,6.08355 L25.04425,9.6536 L20.9308,9.67285 L20.91155,5.5594 L24.50085,5.54015 L24.50085,5.54015 Z M23.16215,2.74615 L23.16215,2.74615 L8.1829,2.74615 C5.58305,2.74615 3.4683,4.84165 3.4683,7.4415 L3.4683,12.3893 L3.4683,22.3036 C3.4683,24.90345 5.58305,26.99895 8.1829,26.99895 L23.16215,26.99895 C25.762,26.99895 27.87675,24.90345 27.87675,22.3036 L27.87675,12.3893 L27.87675,7.4415 C27.87675,4.84165 25.762,2.74615 23.16215,2.74615 L23.16215,2.74615 Z" id="_107171248"></path>
                </g>
            </g>
            <g id="_107170552" transform="translate(170.500000, 0.000000)">
                <path d="M43.8999,20.37255 C43.8999,31.0827 35.2077,39.7749 24.497,39.7749 C13.78685,39.7749 5.09465,31.0827 5.09465,20.37255 C5.09465,9.6624 13.78685,0.9702 24.497,0.9702 C35.2077,0.9702 43.8999,9.6624 43.8999,20.37255" id="_107171224" stroke="#FFFFFF" stroke-width="0.3528"></path>
                <path d="M21.9945,23.51525 L21.9945,16.7057 L28.5527,20.12065 L21.9945,23.51525 L21.9945,23.51525 Z M36.3715,15.5221 L36.3715,15.5221 C36.3715,15.5221 36.13885,13.8534 35.4211,13.1164 C34.48995,12.1462 33.46145,12.1462 32.9956,12.0879 C29.60045,11.83545 24.497,11.83545 24.497,11.83545 C24.497,11.83545 19.3941,11.83545 15.99895,12.0879 C15.5331,12.1462 14.5046,12.1462 13.57345,13.1164 C12.8557,13.8534 12.6225,15.5221 12.6225,15.5221 C12.6225,15.5221 12.3706,17.48175 12.3706,19.4414 L12.3706,21.28445 C12.3706,23.2441 12.6225,25.223 12.6225,25.223 C12.6225,25.223 12.8557,26.8917 13.57345,27.6287 C14.5046,28.57965 15.708,28.5604 16.25085,28.6572 C18.19125,28.85135 24.497,28.90965 24.497,28.90965 C24.497,28.90965 29.60045,28.88985 32.9956,28.6572 C33.46145,28.5989 34.48995,28.57965 35.4211,27.6287 C36.13885,26.8917 36.3715,25.223 36.3715,25.223 C36.3715,25.223 36.62395,23.2441 36.62395,21.28445 L36.62395,19.4414 C36.62395,17.48175 36.3715,15.5221 36.3715,15.5221 L36.3715,15.5221 Z" id="_107171344" fill="#FFFFFF"></path>
            </g>
        </g>
    </g>
</svg>