<?xml version="1.0" encoding="UTF-8"?>
<!DOCTYPE svg PUBLIC "-//W3C//DTD SVG 1.1//EN" "http://www.w3.org/Graphics/SVG/1.1/DTD/svg11.dtd">
<!-- Creator: CorelDRAW -->
<svg xmlns="http://www.w3.org/2000/svg" xml:space="preserve" width="39.1582mm" height="7.4082mm" style="shape-rendering:geometricPrecision; text-rendering:geometricPrecision; image-rendering:optimizeQuality; fill-rule:evenodd; clip-rule:evenodd"
viewBox="0 0 39.1582 7.4082"
 xmlns:xlink="http://www.w3.org/1999/xlink">
 <defs>
  <style type="text/css">
   <![CDATA[
    .str0 {stroke:white;stroke-width:0.3528;stroke-linecap:round;stroke-linejoin:round}
    .fil0 {fill:none;fill-rule:nonzero}
    .fil2 {fill:white}
    .fil1 {fill:white;fill-rule:nonzero}
   ]]>
  </style>
 </defs>
 <g id="Слой_x0020_1">
  <metadata id="CorelCorpID_0Corel-Layer"/>
  <path class="fil0 str0" d="M17.7482 3.7041c0,1.9473 -1.5875,3.5277 -3.5489,3.5277 -1.9615,0 -3.549,-1.5804 -3.549,-3.5277 0,-1.9473 1.5875,-3.5277 3.549,-3.5277 1.9614,0 3.5489,1.5804 3.5489,3.5277"/>
  <g id="_107171512">
   <path id="_107170720" class="fil1" d="M16.2948 1.9791c-0.1764,0.1023 -0.3704,0.1799 -0.5786,0.2187 -0.1658,-0.1764 -0.4021,-0.2858 -0.6632,-0.2858 -0.5045,0 -0.9102,0.4057 -0.9102,0.9067 0,0.0705 0.0071,0.1376 0.0212,0.2046 -0.7549,-0.0388 -1.4252,-0.3987 -1.8732,-0.9455 -0.0812,0.1341 -0.1235,0.2893 -0.1235,0.4551 0,0.314 0.1587,0.5892 0.4022,0.7514 -0.1482,-0.0035 -0.2893,-0.0458 -0.4128,-0.1128l0 0.0141c0,0.4374 0.314,0.8007 0.7303,0.8853 -0.0741,0.0212 -0.1553,0.0318 -0.2399,0.0318 -0.0565,0 -0.1129,-0.0071 -0.1694,-0.0176 0.1165,0.3598 0.4516,0.6208 0.8502,0.6314 -0.3104,0.2399 -0.7055,0.3846 -1.1324,0.3846 -0.0705,0 -0.1446,-0.0036 -0.2152,-0.0106 0.4022,0.254 0.882,0.4057 1.397,0.4057 1.6722,0 2.5894,-1.3794 2.5894,-2.5752l-0.0035 -0.1164c0.1764,-0.127 0.3316,-0.2858 0.4551,-0.4692 -0.1623,0.0741 -0.3387,0.1199 -0.5222,0.1446 0.187,-0.1129 0.3317,-0.2893 0.3987,-0.5009z"/>
  </g>
  <path class="fil0 str0" d="M7.2778 3.7041c0,1.9473 -1.591,3.5277 -3.5525,3.5277 -1.9579,0 -3.5489,-1.5804 -3.5489,-3.5277 0,-1.9473 1.591,-3.5277 3.5489,-3.5277 1.9615,0 3.5525,1.5804 3.5525,3.5277"/>
  <g id="_107171968">
   <path id="_107172016" class="fil1" d="M3.1327 5.9089l0.9242 0 0 -2.2048 0.6209 0 0.0812 -0.7761 -0.7021 0 0 -0.4586c0,-0.1728 0.1129,-0.2116 0.1941,-0.2116l0.4938 0 0 -0.755 -0.6808 -0.0035c-0.7585,0 -0.9313,0.5644 -0.9313,0.9243l0 0.5044 -0.4375 0 0 0.7761 0.4375 0 0 2.2048z"/>
  </g>
  <path class="fil0 str0" d="M28.3985 3.7041c0,1.9473 -1.591,3.5277 -3.5489,3.5277 -1.9615,0 -3.5525,-1.5804 -3.5525,-3.5277 0,-1.9473 1.591,-3.5277 3.5525,-3.5277 1.9579,0 3.5489,1.5804 3.5489,3.5277"/>
  <g id="_107171032">
   <path id="_107171248" class="fil2" d="M26.6346 5.0552c0,0.2364 -0.1905,0.4233 -0.4233,0.4233l-2.7235 0c-0.2363,0 -0.4268,-0.1869 -0.4268,-0.4233l0 -1.8026 0.6632 0c-0.0565,0.1376 -0.0882,0.2928 -0.0882,0.4515 0,0.6632 0.5433,1.2065 1.2136,1.2065 0.6667,0 1.2135,-0.5433 1.2135,-1.2065 0,-0.1587 -0.0317,-0.3139 -0.0917,-0.4515l0.6632 0 0 1.8026zm-2.42 -1.8026l0 0c0.1446,-0.1976 0.3739,-0.3246 0.635,-0.3246 0.261,0 0.4903,0.127 0.6314,0.3246 0.0917,0.127 0.1482,0.2822 0.1482,0.4515 0,0.4268 -0.3493,0.7761 -0.7796,0.7761 -0.4304,0 -0.7832,-0.3493 -0.7832,-0.7761 0,-0.1693 0.0564,-0.3245 0.1482,-0.4515zm2.2401 -1.2453l0 0 0.0988 0 0 0.0988 0 0.6491 -0.7479 0.0035 -0.0035 -0.7479 0.6526 -0.0035zm-0.2434 -0.508l0 0 -2.7235 0c-0.4727,0 -0.8572,0.381 -0.8572,0.8537l0 0.8996 0 1.8026c0,0.4727 0.3845,0.8537 0.8572,0.8537l2.7235 0c0.4727,0 0.8572,-0.381 0.8572,-0.8537l0 -1.8026 0 -0.8996c0,-0.4727 -0.3845,-0.8537 -0.8572,-0.8537z"/>
  </g>
  <g id="_107170552">
   <path id="_107171224" class="fil0 str0" d="M38.9818 3.7041c0,1.9473 -1.5804,3.5277 -3.5278,3.5277 -1.9473,0 -3.5277,-1.5804 -3.5277,-3.5277 0,-1.9473 1.5804,-3.5277 3.5277,-3.5277 1.9474,0 3.5278,1.5804 3.5278,3.5277"/>
   <g>
    <path id="_107171344" class="fil2" d="M34.999 4.2755l0 -1.2381 1.1924 0.6209 -1.1924 0.6172zm2.614 -1.4533l0 0c0,0 -0.0423,-0.3034 -0.1728,-0.4374 -0.1693,-0.1764 -0.3563,-0.1764 -0.441,-0.187 -0.6173,-0.0459 -1.5452,-0.0459 -1.5452,-0.0459 0,0 -0.9278,0 -1.5451,0.0459 -0.0847,0.0106 -0.2717,0.0106 -0.441,0.187 -0.1305,0.134 -0.1729,0.4374 -0.1729,0.4374 0,0 -0.0458,0.3563 -0.0458,0.7126l0 0.3351c0,0.3563 0.0458,0.7161 0.0458,0.7161 0,0 0.0424,0.3034 0.1729,0.4374 0.1693,0.1729 0.3881,0.1694 0.4868,0.187 0.3528,0.0353 1.4993,0.0459 1.4993,0.0459 0,0 0.9279,-0.0036 1.5452,-0.0459 0.0847,-0.0106 0.2717,-0.0141 0.441,-0.187 0.1305,-0.134 0.1728,-0.4374 0.1728,-0.4374 0,0 0.0459,-0.3598 0.0459,-0.7161l0 -0.3351c0,-0.3563 -0.0459,-0.7126 -0.0459,-0.7126z"/>
   </g>
  </g>
 </g>
</svg>
